<svg version="1" xmlns="http://www.w3.org/2000/svg" width="413.333" height="413.333" viewBox="0 0 310.000000 310.000000"><path d="M0 54.1c0 51.3.1 54.1 1.8 52.8.9-.8 2-1.7 2.3-2.2.3-.4 23.8-24.1 52.3-52.7l51.8-52H0v54.1zM77.3 77.5L0 155.2v69.5c0 38.3.4 69.3.8 68.9.4-.3 28.3-28.2 61.9-61.8l61.3-61.2v46.6l-44.9 44.9c-24.6 24.7-45.4 45.5-46.1 46.4-1.1 1.3 1.3 1.5 21.5 1.5h22.8l38.9-38.7 38.8-38.7v-69.3c0-38.1-.2-69.3-.4-69.3s-28.1 27.7-62 61.6L31 217.2v-46.7L108.5 93 186 15.6v233.2l-15.1 14.9C144.5 289.5 125 309 125 309.5c0 .3 41.4.5 92 .5s92-.3 92-.5c0-.3-16-16.4-35.5-36-19.5-19.5-35.5-35.9-35.4-36.3 0-.4 3.2-2.3 7-4.2 19.7-9.8 39.1-29.5 51.2-52 3.1-5.8 9.1-21.5 10.3-27.3 3.3-15.3 4.2-33.8 2.2-47.2-6-41.6-32.7-77.2-70.9-94.8C218.5 2.7 209.5 1 179 .3l-24.5-.5-77.2 77.7z"/></svg>