<?xml version="1.0" encoding="UTF-8"?>
<svg width="1280px" height="1085px" viewBox="0 0 1280 1085" version="1.1" xmlns="http://www.w3.org/2000/svg" xmlns:xlink="http://www.w3.org/1999/xlink">
    <!-- Generator: Sketch 47.1 (45422) - http://www.bohemiancoding.com/sketch -->
    <title>header</title>
    <desc>Created with Sketch.</desc>
    <defs>
        <path d="M215.862516,259.538599 C246.250341,230.229787 356.099902,271.84844 372.993567,232.406372 C389.887232,192.964304 321.821144,205.189326 300.363261,177.817515 C278.905377,150.445704 232.668883,107.003018 201.138885,142.14203 C169.608888,177.281042 80,180.54605 80,224.73286 C80,268.919669 91.6864004,300.217527 120.079546,332.930316 C150.313501,367.76397 186.880971,287.491066 215.862516,259.538599 Z" id="path-1"></path>
        <filter x="-31.8%" y="-62.1%" width="163.6%" height="188.5%" filterUnits="objectBoundingBox" id="filter-2">
            <feOffset dx="0" dy="-38" in="SourceAlpha" result="shadowOffsetOuter1"></feOffset>
            <feGaussianBlur stdDeviation="25" in="shadowOffsetOuter1" result="shadowBlurOuter1"></feGaussianBlur>
            <feColorMatrix values="0 0 0 0 0   0 0 0 0 0   0 0 0 0 0  0 0 0 0.05 0" type="matrix" in="shadowBlurOuter1"></feColorMatrix>
        </filter>
        <path d="M1147.46444,333.67187 C1177.85227,304.363058 1207.4696,373.113938 1224.36326,333.67187 C1241.25693,294.229802 1245.82114,253.074782 1224.36326,225.702972 C1212.66107,210.775578 1242.64821,104.110018 1200.69013,81.5369795 C1165.71123,62.7186692 1058.41446,124.359261 1044.07955,140.334986 C1012.54955,175.473998 895.439783,181.516162 895.439783,225.702972 C895.439783,269.889781 1015.6864,348.102984 1044.07955,380.815773 C1074.3135,415.649427 1118.4829,361.624336 1147.46444,333.67187 Z" id="path-3"></path>
        <filter x="-27.4%" y="-42.0%" width="154.8%" height="159.8%" filterUnits="objectBoundingBox" id="filter-4">
            <feOffset dx="0" dy="-38" in="SourceAlpha" result="shadowOffsetOuter1"></feOffset>
            <feGaussianBlur stdDeviation="25" in="shadowOffsetOuter1" result="shadowBlurOuter1"></feGaussianBlur>
            <feColorMatrix values="0 0 0 0 0   0 0 0 0 0   0 0 0 0 0  0 0 0 0.05 0" type="matrix" in="shadowBlurOuter1"></feColorMatrix>
        </filter>
        <filter x="-4.8%" y="-6.4%" width="114.3%" height="124.9%" filterUnits="objectBoundingBox" id="filter-5">
            <feMorphology radius="2" operator="dilate" in="SourceAlpha" result="shadowSpreadOuter1"></feMorphology>
            <feOffset dx="50" dy="108" in="shadowSpreadOuter1" result="shadowOffsetOuter1"></feOffset>
            <feMorphology radius="2" operator="erode" in="SourceAlpha" result="shadowInner"></feMorphology>
            <feOffset dx="50" dy="108" in="shadowInner" result="shadowInner"></feOffset>
            <feComposite in="shadowOffsetOuter1" in2="shadowInner" operator="out" result="shadowOffsetOuter1"></feComposite>
            <feGaussianBlur stdDeviation="5" in="shadowOffsetOuter1" result="shadowBlurOuter1"></feGaussianBlur>
            <feColorMatrix values="0 0 0 0 0   0 0 0 0 0   0 0 0 0 0  0 0 0 0.2 0" type="matrix" in="shadowBlurOuter1" result="shadowMatrixOuter1"></feColorMatrix>
            <feMerge>
                <feMergeNode in="shadowMatrixOuter1"></feMergeNode>
                <feMergeNode in="SourceGraphic"></feMergeNode>
            </feMerge>
        </filter>
        <path d="M792.735346,771.780952 C864.461254,762.042956 816.774032,661.358895 858.498636,621.115852 C902.247855,578.920083 957.49982,574.902145 981.821556,518.117572 C1006.14329,461.333 971.215815,442.046444 940.322994,402.639368 C909.430173,363.232292 884.243324,303.327488 819.24318,297.960946 C754.243036,292.594403 692.303421,309.23264 646.909821,359.822121 C601.516221,410.411603 560,443.454495 560,507.070051 C560,570.685607 576.82486,615.744996 617.702347,662.841455 C661.23004,712.991314 755.746345,776.802829 792.735346,771.780952 Z" id="path-6"></path>
        <filter x="-21.9%" y="-27.8%" width="143.7%" height="139.6%" filterUnits="objectBoundingBox" id="filter-7">
            <feOffset dx="0" dy="-38" in="SourceAlpha" result="shadowOffsetOuter1"></feOffset>
            <feGaussianBlur stdDeviation="25" in="shadowOffsetOuter1" result="shadowBlurOuter1"></feGaussianBlur>
            <feColorMatrix values="0 0 0 0 0   0 0 0 0 0   0 0 0 0 0  0 0 0 0.05 0" type="matrix" in="shadowBlurOuter1"></feColorMatrix>
        </filter>
    </defs>
    <g id="Home" stroke="none" stroke-width="1" fill="none" fill-rule="evenodd">
        <g id="XL:-Home">
            <g id="header">
                <g id="Oval-Copy">
                    <use fill="black" fill-opacity="1" filter="url(#filter-2)" xlink:href="#path-1"></use>
                    <use fill="#FFFFFF" fill-rule="evenodd" xlink:href="#path-1"></use>
                </g>
                <g id="Oval-Copy-2">
                    <use fill="black" fill-opacity="1" filter="url(#filter-4)" xlink:href="#path-3"></use>
                    <use fill="#FFFFFF" fill-rule="evenodd" xlink:href="#path-3"></use>
                </g>
                <g id="floaters" filter="url(#filter-5)" stroke-width="4" stroke="#000000">
                    <polyline id="Path-2" transform="translate(1131.921962, 538.530683) scale(1, -1) rotate(-141.000000) translate(-1131.921962, -538.530683) " points="1071.92196 548.530683 1091.92196 528.530683 1111.92196 548.530683 1131.92196 528.530683 1151.92196 548.530683 1171.92196 528.530683 1191.92196 548.530683"></polyline>
                    <polyline id="Path-2" transform="translate(877.806497, 224.883332) scale(-1, 1) rotate(-92.000000) translate(-877.806497, -224.883332) " points="817.806497 234.883332 837.806497 214.883332 857.806497 234.883332 877.806497 214.883332 897.806497 234.883332 917.806497 214.883332 937.806497 234.883332"></polyline>
                    <polyline id="Path-2" transform="translate(653.673999, 523.910892) rotate(-56.000000) translate(-653.673999, -523.910892) " points="593.673999 533.910892 613.673999 513.910892 633.673999 533.910892 653.673999 513.910892 673.673999 533.910892 693.673999 513.910892 713.673999 533.910892"></polyline>
                    <polyline id="Path-2" transform="translate(676.528664, 102.942489) scale(1, -1) rotate(-37.000000) translate(-676.528664, -102.942489) " points="616.528664 112.942489 636.528664 92.9424894 656.528664 112.942489 676.528664 92.9424894 696.528664 112.942489 716.528664 92.9424894 736.528664 112.942489"></polyline>
                    <polyline id="Path-2" transform="translate(449.038733, 751.856619) scale(-1, -1) rotate(-356.000000) translate(-449.038733, -751.856619) " points="389.038733 761.856619 409.038733 741.856619 429.038733 761.856619 449.038733 741.856619 469.038733 761.856619 489.038733 741.856619 509.038733 761.856619"></polyline>
                    <polyline id="Path-2" transform="translate(482.473958, 194.580419) scale(1, -1) rotate(-121.000000) translate(-482.473958, -194.580419) " points="422.473958 204.580419 442.473958 184.580419 462.473958 204.580419 482.473958 184.580419 502.473958 204.580419 522.473958 184.580419 542.473958 204.580419"></polyline>
                    <path d="M1113.82023,25.0939893 C1115.75605,31.7525135 1119.08938,35.0817756 1123.82023,35.0817756 C1130.91649,35.0817756 1131.50305,31.2908034 1133.82023,28.5897145 C1136.13741,25.8886255 1138.4058,25.0244161 1140.82023,25.0939893 C1143.23465,25.1635625 1145.29913,25.4324031 1147.82023,28.5897145 C1150.34133,31.7470258 1151.61185,35.2850956 1157.82023,35.0817756 C1164.0286,34.8784555 1166.44796,29.3757272 1168.53224,27.6328945 C1170.61652,25.8900619 1172.56831,25.0939893 1174.82023,25.0939893 C1179.85699,25.0939893 1183.19033,28.4232514 1184.82023,35.0817756" id="Path-3" transform="translate(1149.320227, 30.090147) rotate(-227.000000) translate(-1149.320227, -30.090147) "></path>
                    <path d="M911.964175,62.7661484 C913.899998,69.4246726 917.233331,72.7539347 921.964175,72.7539347 C929.060441,72.7539347 929.646994,68.9629626 931.964175,66.2618736 C934.281357,63.5607847 936.549749,62.6965752 938.964175,62.7661484 C941.378601,62.8357216 943.443075,63.1045623 945.964175,66.2618736 C948.485275,69.419185 949.755803,72.9572548 955.964175,72.7539347 C962.172547,72.5506146 964.59191,67.0478864 966.676189,65.3050537 C968.760469,63.562221 970.712261,62.7661484 972.964175,62.7661484 C978.000941,62.7661484 981.334274,66.0954105 982.964175,72.7539347" id="Path-3" transform="translate(947.464175, 67.762306) scale(-1, -1) rotate(-266.000000) translate(-947.464175, -67.762306) "></path>
                    <path d="M1148.96418,688.766148 C1150.9,695.424673 1154.23333,698.753935 1158.96418,698.753935 C1166.06044,698.753935 1166.64699,694.962963 1168.96418,692.261874 C1171.28136,689.560785 1173.54975,688.696575 1175.96418,688.766148 C1178.3786,688.835722 1180.44308,689.104562 1182.96418,692.261874 C1185.48527,695.419185 1186.7558,698.957255 1192.96418,698.753935 C1199.17255,698.550615 1201.59191,693.047886 1203.67619,691.305054 C1205.76047,689.562221 1207.71226,688.766148 1209.96418,688.766148 C1215.00094,688.766148 1218.33427,692.095411 1219.96418,698.753935" id="Path-3-Copy" transform="translate(1184.464175, 693.762306) scale(-1, -1) rotate(-266.000000) translate(-1184.464175, -693.762306) "></path>
                    <path d="M176.807591,340.729228 C178.743414,347.387752 182.076747,350.717014 186.807591,350.717014 C193.903857,350.717014 194.49041,346.926042 196.807591,344.224953 C199.124773,341.523864 201.393165,340.659655 203.807591,340.729228 C206.222017,340.798801 208.286492,341.067642 210.807591,344.224953 C213.328691,347.382265 214.599219,350.920335 220.807591,350.717014 C227.015963,350.513694 229.435326,345.010966 231.519606,343.268133 C233.603886,341.525301 235.555677,340.729228 237.807591,340.729228 C242.844357,340.729228 246.17769,344.05849 247.807591,350.717014" id="Path-3" transform="translate(212.307591, 345.725386) rotate(-198.000000) translate(-212.307591, -345.725386) "></path>
                    <path d="M300.152872,139.239729 C302.088694,145.898253 305.422028,149.227515 310.152872,149.227515 C317.249138,149.227515 317.83569,145.436543 320.152872,142.735454 C322.470053,140.034365 324.738446,139.170155 327.152872,139.239729 C329.567298,139.309302 331.631772,139.578142 334.152872,142.735454 C336.673971,145.892765 337.9445,149.430835 344.152872,149.227515 C350.361244,149.024195 352.780606,143.521466 354.864886,141.778634 C356.949166,140.035801 358.900958,139.239729 361.152872,139.239729 C366.189638,139.239729 369.522971,142.568991 371.152872,149.227515" id="Path-3" transform="translate(335.652872, 144.235886) rotate(-358.000000) translate(-335.652872, -144.235886) "></path>
                    <path d="M753.152872,954.239729 C755.088694,960.898253 758.422028,964.227515 763.152872,964.227515 C770.249138,964.227515 770.83569,960.436543 773.152872,957.735454 C775.470053,955.034365 777.738446,954.170155 780.152872,954.239729 C782.567298,954.309302 784.631772,954.578142 787.152872,957.735454 C789.673971,960.892765 790.9445,964.430835 797.152872,964.227515 C803.361244,964.024195 805.780606,958.521466 807.864886,956.778634 C809.949166,955.035801 811.900958,954.239729 814.152872,954.239729 C819.189638,954.239729 822.522971,957.568991 824.152872,964.227515" id="Path-3-Copy-2" transform="translate(788.652872, 959.235886) rotate(-358.000000) translate(-788.652872, -959.235886) "></path>
                    <polyline id="Path-2" transform="translate(94.711714, 101.240764) rotate(-13.000000) translate(-94.711714, -101.240764) " points="34.7117144 111.240764 54.7117144 91.2407639 74.7117144 111.240764 94.7117144 91.2407639 114.711714 111.240764 134.711714 91.2407639 154.711714 111.240764"></polyline>
                    <path d="M141.281665,235.426896 C143.217488,242.085421 146.550821,245.414683 151.281665,245.414683 C158.377931,245.414683 158.964484,241.623711 161.281665,238.922622 C163.598846,236.221533 165.867239,235.357323 168.281665,235.426896 C170.696091,235.49647 172.760565,235.76531 175.281665,238.922622 C177.802765,242.079933 179.073293,245.618003 185.281665,245.414683 C191.490037,245.211363 193.9094,239.708634 195.993679,237.965802 C198.077959,236.222969 200.029751,235.426896 202.281665,235.426896 C207.318431,235.426896 210.651764,238.756159 212.281665,245.414683" id="Path-3" transform="translate(176.781665, 240.423054) scale(-1, -1) rotate(-77.000000) translate(-176.781665, -240.423054) "></path>
                    <path d="M212.756874,892.531434 C237.057403,892.531434 256.756874,873.055821 256.756874,849.031434 C256.756874,825.007048 237.057403,805.531434 212.756874,805.531434" id="Oval-2" transform="translate(234.756874, 849.031434) rotate(-163.000000) translate(-234.756874, -849.031434) "></path>
                    <path d="M1219,340 C1243.30053,340 1263,320.524387 1263,296.5 C1263,272.475613 1243.30053,253 1219,253" id="Oval-2" transform="translate(1241.000000, 296.500000) scale(-1, 1) rotate(-154.000000) translate(-1241.000000, -296.500000) "></path>
                    <path d="M957.401072,809.051114 C981.701601,809.051114 1001.40107,789.575501 1001.40107,765.551114 C1001.40107,741.526727 981.701601,722.051114 957.401072,722.051114" id="Oval-2" transform="translate(979.401072, 765.551114) scale(-1, -1) rotate(-250.000000) translate(-979.401072, -765.551114) "></path>
                    <path d="M807.683612,613.447629 C831.984141,613.447629 851.683612,593.972015 851.683612,569.947629 C851.683612,545.923242 831.984141,526.447629 807.683612,526.447629" id="Oval-2" transform="translate(829.683612, 569.947629) rotate(-77.000000) translate(-829.683612, -569.947629) "></path>
                    <path d="M155.169332,616.865483 C179.469861,616.865483 199.169332,597.389869 199.169332,573.365483 C199.169332,549.341096 179.469861,529.865483 155.169332,529.865483" id="Oval-2" transform="translate(177.169332, 573.365483) rotate(-288.000000) translate(-177.169332, -573.365483) "></path>
                    <path d="M26.3786448,810.922377 C50.6791738,810.922377 70.3786448,791.446764 70.3786448,767.422377 C70.3786448,743.397991 50.6791738,723.922377 26.3786448,723.922377" id="Oval-2" transform="translate(48.378645, 767.422377) scale(-1, -1) rotate(-104.000000) translate(-48.378645, -767.422377) "></path>
                    <polyline id="Path-2" transform="translate(645.884887, 709.606107) scale(1, -1) rotate(-325.000000) translate(-645.884887, -709.606107) " points="585.884887 719.606107 605.884887 699.606107 625.884887 719.606107 645.884887 699.606107 665.884887 719.606107 685.884887 699.606107 705.884887 719.606107"></polyline>
                </g>
                <g id="Oval">
                    <use fill="black" fill-opacity="1" filter="url(#filter-7)" xlink:href="#path-6"></use>
                    <use fill="#FFFFFF" fill-rule="evenodd" xlink:href="#path-6"></use>
                </g>
            </g>
        </g>
    </g>
</svg>