<?xml version="1.0" encoding="UTF-8"?>
<svg width="30px" height="30px" viewBox="0 0 30 30" version="1.1" xmlns="http://www.w3.org/2000/svg" xmlns:xlink="http://www.w3.org/1999/xlink">
    <!-- Generator: Sketch 47.1 (45422) - http://www.bohemiancoding.com/sketch -->
    <title>logo</title>
    <desc>Created with Sketch.</desc>
    <defs></defs>
    <g id="Symbols" stroke="none" stroke-width="1" fill="none" fill-rule="evenodd">
        <g id="Assets/Logo/Personal-Logo" fill-rule="nonzero" fill="#000000">
            <path d="M26.25,0 L22.5,0 L18.75,0 L15,0 L15,3.75 L18.75,3.75 L22.5,3.75 L26.25,3.75 L26.25,7.5 L22.5,7.5 L18.75,7.5 L15,7.5 L11.25,7.5 L11.25,3.72395833 L11.25,0 L7.5,0 L3.75,0 L0,0 L0,3.72395833 L0,7.47395833 L0,11.25 L3.75,11.25 L7.5,11.25 L7.5,14.9739583 L7.5,18.7239583 L7.5,22.4739583 L7.5,26.2239583 L7.5,30 L11.25,30 L15,30 L18.75,30 L22.5,30 L26.25,30 L30,30 L30,26.25 L26.25,26.25 L22.5,26.25 L18.75,26.25 L15,26.25 L11.25,26.25 L11.25,22.4739583 L11.25,18.7239583 L11.25,14.9739583 L11.25,11.25 L15,11.25 L18.75,11.25 L22.5,11.25 L26.25,11.25 L30,11.25 L30,7.47395833 L30,3.72395833 L30,0 L26.25,0 Z M3.75,7.5 L3.75,3.75 L7.5,3.75 L7.5,7.5 L3.75,7.5 Z M26,20.75 L26,17 L29.75,17 L29.75,20.75 L26,20.75 Z" id="logo"></path>
        </g>
    </g>
</svg>